<?xml version="1.0" encoding="UTF-8" standalone="no"?>
<svg width="20px" height="20px" viewBox="0 0 20 20" version="1.1" xmlns="http://www.w3.org/2000/svg" xmlns:xlink="http://www.w3.org/1999/xlink">
    <!-- Generator: Sketch 49.3 (51167) - http://www.bohemiancoding.com/sketch -->
    <title>instagram</title>
    <desc>Created with Sketch.</desc>
    <defs>
        <path d="M15.9916736,229 C13.2772689,229 12.9358868,229 11.8701082,229.058406 C10.8126561,229.108469 10.0799334,229.275344 9.45545379,229.525657 C8.78934221,229.77597 8.22314738,230.126408 7.66527893,230.668753 C7.13238968,231.252816 6.79100749,231.803504 6.53288926,232.462662 C6.28309742,233.096788 6.11656953,233.831039 6.06661116,234.882353 C6,235.967042 6,236.300793 6,239.012516 C6,241.724239 6,242.074677 6.05828476,243.142678 C6.10824313,244.202336 6.27477102,244.936587 6.52456286,245.56237 C6.7743547,246.229871 7.12406328,246.788903 7.67360533,247.347935 C8.25645296,247.865248 8.82264779,248.207343 9.48043297,248.465999 C10.113239,248.716312 10.8459617,248.883187 11.8950874,248.93325 C12.9775187,248.991656 13.3105745,249 16.0249792,249 C18.7393838,249 19.0890924,249 20.1548709,248.93325 C21.2039967,248.883187 21.9367194,248.716312 22.5695254,248.465999 C23.235637,248.215686 23.785179,247.865248 24.3430475,247.31456 C24.8842631,246.747184 25.2256453,246.188152 25.4837635,245.528995 C25.7335554,244.894869 25.9000833,244.160617 25.9417152,243.109303 C25.9916736,242.024614 26,241.690864 26,238.970797 C26,236.25073 26,235.908636 25.9417152,234.840634 C25.8917569,233.797664 25.725229,233.063413 25.4754371,232.420943 C25.2256453,231.753442 24.8592839,231.211097 24.3097419,230.652065 C23.7352206,230.084689 23.194005,229.750939 22.5362198,229.500626 C21.9034138,229.250313 21.1706911,229.083438 20.1215654,229.025031 C19.0474604,229 18.7144047,229 15.9916736,229 Z M15.9916736,230.802253 C18.6561199,230.802253 18.9725229,230.802253 20.029975,230.860659 C21.0041632,230.910722 21.5287261,231.069253 21.886761,231.211097 C22.3530391,231.377972 22.6860949,231.603254 23.0358035,231.962036 C23.3855121,232.295786 23.6019983,232.629537 23.785179,233.105131 C23.9184013,233.463913 24.0766028,233.98957 24.1182348,234.965791 C24.1765196,236.025448 24.184846,236.342511 24.184846,239.012516 C24.184846,241.68252 24.184846,241.999583 24.1265612,243.059241 C24.0766028,244.035461 23.9184013,244.561118 23.7768526,244.9199 C23.6103247,245.387151 23.3855121,245.720901 23.0274771,246.071339 C22.6944213,246.421777 22.3613655,246.638715 21.886761,246.822278 C21.5287261,246.955778 21.0041632,247.11431 20.029975,247.156028 C18.9725229,247.214435 18.6561199,247.222778 15.9916736,247.222778 C13.3272273,247.222778 13.0108243,247.222778 11.9533722,247.164372 C10.979184,247.11431 10.4546211,246.955778 10.0965862,246.813934 C9.63030808,246.647059 9.29725229,246.421777 8.94754371,246.062995 C8.59783514,245.729245 8.38134888,245.395494 8.19816819,244.9199 C8.06494588,244.561118 7.90674438,244.035461 7.86511241,243.059241 C7.80682764,241.999583 7.79850125,241.68252 7.79850125,239.012516 C7.79850125,236.342511 7.79850125,236.025448 7.85678601,234.965791 C7.90674438,233.98957 8.06494588,233.463913 8.20649459,233.105131 C8.37302248,232.637881 8.59783514,232.30413 8.95587011,231.953692 C9.2889259,231.603254 9.62198168,231.386316 10.0965862,231.202753 C10.4546211,231.069253 10.979184,230.910722 11.9533722,230.869003 C13.0108243,230.810597 13.3272273,230.802253 15.9916736,230.802253 Z M15.9916736,233.872758 C13.1606994,233.872758 10.8626145,236.175636 10.8626145,239.012516 C10.8626145,241.849395 13.1606994,244.152274 15.9916736,244.152274 C18.8226478,244.152274 21.1207327,241.849395 21.1207327,239.012516 C21.1207327,236.175636 18.8226478,233.872758 15.9916736,233.872758 Z M15.9916736,242.350021 C14.1598668,242.350021 12.6611157,240.848144 12.6611157,239.012516 C12.6611157,237.176888 14.1598668,235.67501 15.9916736,235.67501 C17.8234804,235.67501 19.3222315,237.176888 19.3222315,239.012516 C19.3222315,240.848144 17.8234804,242.350021 15.9916736,242.350021 Z M22.5278934,233.672507 C22.5278934,234.340008 21.9866778,234.865665 21.3288926,234.865665 C20.662781,234.865665 20.1631973,234.331665 20.1631973,233.664164 C20.1631973,232.996662 20.6960866,232.429287 21.3621982,232.429287 C22.0283097,232.429287 22.5695254,232.971631 22.5695254,233.630788 L22.5278934,233.672507 Z" id="path-1"></path>
    </defs>
    <g id="3.-Components" stroke="none" stroke-width="1" fill="none" fill-rule="evenodd">
        <g id="Components-/-Menu" transform="translate(-26.000000, -791.000000)">
            <g id="menu">
                <g id="Group" transform="translate(20.000000, 562.000000)">
                    <mask id="mask-2" fill="white">
                        <use xlink:href="#path-1"></use>
                    </mask>
                    <use id="instagram" fill="#979799" fill-rule="nonzero" xlink:href="#path-1"></use>
                </g>
            </g>
        </g>
    </g>
</svg>