<?xml version="1.0" encoding="UTF-8" standalone="no"?>
<svg width="20px" height="21px" viewBox="0 0 20 21" version="1.1" xmlns="http://www.w3.org/2000/svg" xmlns:xlink="http://www.w3.org/1999/xlink">
    <!-- Generator: Sketch 49.3 (51167) - http://www.bohemiancoding.com/sketch -->
    <title>Shape</title>
    <desc>Created with Sketch.</desc>
    <defs></defs>
    <g id="3.-Components" stroke="none" stroke-width="1" fill="none" fill-rule="evenodd">
        <g id="Components-/-Filter" transform="translate(-22.000000, -305.000000)" fill="#E8C931" fill-rule="nonzero">
            <path d="M33.5387249,325.285803 C33.3384676,325.285803 33.1415436,325.207597 32.9946199,325.060417 L29.9176829,321.98348 C29.7733233,321.839377 29.6922973,321.643735 29.6922973,321.439632 L29.6922973,314.516523 C29.6922973,314.297548 29.5284504,313.902162 29.3738343,313.747289 L22.2253405,306.598795 C22.0053395,306.378794 21.9394418,306.048024 22.0586731,305.760587 C22.1779044,305.473149 22.4581621,305.285713 22.7691891,305.285713 L41.2308109,305.285713 C41.5420943,305.285713 41.8226084,305.473149 41.9413269,305.760587 C42.0605582,306.048024 41.9946605,306.378794 41.7746595,306.598795 L34.6261657,313.747289 C34.4715496,313.902162 34.3077027,314.297548 34.3077027,314.516523 L34.3077027,324.516569 C34.3077027,324.827852 34.1205224,325.108366 33.8328288,325.227085 C33.7377001,325.266828 33.6376997,325.285803 33.5387249,325.285803 Z M31.2307658,321.121169 L32.7692342,322.659637 L32.7692342,314.516523 C32.7692342,313.886264 33.0928254,313.105491 33.5382121,312.659592 C33.9918384,312.205986 34.3320581,311.865781 34.5588713,311.638978 C35.6288731,310.569023 37.2338758,308.964091 39.3738794,306.824181 L24.626377,306.824181 L30.4615315,312.659592 C30.9071746,313.105235 31.2307658,313.886264 31.2307658,314.516523 L31.2307658,321.121169 Z" id="Shape"></path>
        </g>
    </g>
</svg>