<?xml version="1.0" encoding="UTF-8" standalone="no"?>
<svg width="22px" height="22px" viewBox="0 0 22 22" version="1.1" xmlns="http://www.w3.org/2000/svg" xmlns:xlink="http://www.w3.org/1999/xlink">
    <!-- Generator: Sketch 49.3 (51167) - http://www.bohemiancoding.com/sketch -->
    <title>Shape</title>
    <desc>Created with Sketch.</desc>
    <defs></defs>
    <g id="3.-Components" stroke="none" stroke-width="1" fill="none" fill-rule="evenodd">
        <g id="Components-/-Menu" transform="translate(-25.000000, -36.000000)" fill="#979799">
            <g id="menu">
                <g id="Group-10" transform="translate(25.000000, 36.000000)">
                    <path d="M0.0778301136,4.02962412 C0.572498821,1.14550781 3.04584236,0.156667931 3.8702902,0.0742646074 C4.61229327,-0.00813871586 5.18940676,-0.337752009 6.0138546,1.55752443 C6.75585766,3.45280086 7.74519508,6.08970721 7.74519508,6.08970721 C7.74519508,6.08970721 7.82763986,6.58412714 7.33297116,7.16095041 C6.83830245,7.82017699 5.93140982,8.72661355 5.93140982,8.72661355 C5.93140982,8.72661355 5.68407546,9.22103349 5.93140982,9.63305011 C6.92074723,11.6107299 10.465873,15.0716694 12.362103,16.1429126 C12.8567717,16.3901226 13.2689956,16.0605093 13.2689956,16.0605093 C13.2689956,16.0605093 14.2583331,15.1540728 14.8354466,14.6596528 C15.4950048,14.1652329 15.9896735,14.3300395 15.9896735,14.3300395 C15.9896735,14.3300395 18.5454619,15.2364761 20.4416919,16.0605093 C22.3379219,16.8021392 22.0081428,17.3789625 21.925698,18.2029957 C21.925698,18.9446256 20.9363606,21.4167253 17.9683484,21.9111453 C10.8780969,23.1471951 -1.07639687,11.1987132 0.0778301136,4.02962412 Z M11.913939,6.6544317 C11.1269698,7.00238215 10.6023237,5.87154317 11.3892929,5.4366051 C15.499021,3.6098652 19.2589849,7.8722583 17.5976055,11.6127257 C17.1604004,12.3956142 15.9362261,11.8736886 16.3734312,11.0908 C17.5976055,8.39418398 14.7994928,5.34961748 11.913939,6.6544317 Z M11.697561,2.34792794 C10.884032,2.51091887 10.7213262,1.28848689 11.5348552,1.12549596 C17.0668525,0.147550372 21.7853208,5.03727829 20.8904389,10.4974745 C20.7277331,11.3124291 19.5074396,11.0679427 19.6701454,10.2529881 C20.4023215,5.60774655 16.3346764,1.53297328 11.697561,2.34792794 Z" id="Shape"></path>
                </g>
            </g>
        </g>
    </g>
</svg>