<?xml version="1.0" encoding="UTF-8" standalone="no"?>
<svg width="19px" height="28px" viewBox="0 0 19 28" version="1.1" xmlns="http://www.w3.org/2000/svg" xmlns:xlink="http://www.w3.org/1999/xlink">
    <!-- Generator: Sketch 49.3 (51167) - http://www.bohemiancoding.com/sketch -->
    <title>Shape</title>
    <desc>Created with Sketch.</desc>
    <defs></defs>
    <g id="4.-Sections" stroke="none" stroke-width="1" fill="none" fill-rule="evenodd">
        <g id="Sections-/-Footer" transform="translate(-180.000000, -510.000000)" fill="#FAFBFB" fill-rule="nonzero">
            <g id="scroll" transform="translate(165.000000, 499.000000)">
                <path d="M33.8555913,21.0243693 C33.9487478,20.9286655 34,20.8056178 34,20.6722888 C34,20.5389597 33.9488015,20.4142167 33.8555913,20.3185129 L24.8440719,11.1410127 C24.6602302,10.9529958 24.3378895,10.9529958 24.1539941,11.1410127 L15.1425821,20.3185676 C14.9524011,20.5133658 14.9524011,20.8303914 15.1430119,21.0243693 C15.3264238,21.2115112 15.6487645,21.2115112 15.833036,21.0243693 L24.0104987,12.6962264 L24.0104987,38.5026685 C24.0104987,38.7769829 24.2296367,39 24.4991136,39 C24.7685905,39 24.9876747,38.7769829 24.9876747,38.5026685 C24.9876747,36.5124803 24.9876747,35.0198392 24.9876747,34.0247451 C24.9876747,29.2852688 24.9876747,22.1760542 24.9876747,12.6971014 L33.1651912,21.023549 C33.3494089,21.2123862 33.6713199,21.2115112 33.8555913,21.0243693 Z" id="Shape"></path>
            </g>
        </g>
    </g>
</svg>