<?xml version="1.0" encoding="UTF-8" standalone="no"?>
<svg width="22px" height="22px" viewBox="0 0 22 22" version="1.1" xmlns="http://www.w3.org/2000/svg" xmlns:xlink="http://www.w3.org/1999/xlink">
    <!-- Generator: Sketch 49.3 (51167) - http://www.bohemiancoding.com/sketch -->
    <title>Shape</title>
    <desc>Created with Sketch.</desc>
    <defs></defs>
    <g id="3.-Components" stroke="none" stroke-width="1" fill="none" fill-rule="evenodd">
        <g id="Components-/-Menu" transform="translate(-25.000000, -106.000000)" fill="#979799" fill-rule="nonzero">
            <g id="menu">
                <g id="Group-10" transform="translate(25.000000, 36.000000)">
                    <path d="M21.8055778,90.7103448 L17.3345818,86.2724138 C20.6688839,82.4034483 20.4794349,76.562069 16.8041247,72.8827586 C14.9096349,70.9482759 12.3710185,70 9.87029195,70 C7.36956539,70 4.83094904,70.9482759 2.89856942,72.8827586 C-0.966189807,76.7517241 -0.966189807,82.9724138 2.89856942,86.8413793 C4.79305924,88.737931 7.3316756,89.7241379 9.87029195,89.7241379 C12.1436797,89.7241379 14.4549573,88.9275862 16.2736675,87.3344828 L20.7446635,91.8103448 C20.8583329,91.9241379 21.0477819,92 21.2372309,92 C21.4266798,92 21.6161288,91.9241379 21.767688,91.7724138 C22.0708064,91.5068966 22.0708064,91.0137931 21.8055778,90.7103448 Z M3.95948372,85.7413793 C2.36811227,84.1862069 1.53453675,82.062069 1.53453675,79.862069 C1.53453675,77.662069 2.40600207,75.537931 3.95948372,73.9448276 C5.55085517,72.3517241 7.63479397,71.5172414 9.87029195,71.5172414 C12.1057899,71.5172414 14.1897287,72.3896552 15.7811002,73.9448276 C17.3345818,75.537931 18.2060472,77.6241379 18.2060472,79.862069 C18.2060472,82.1 17.3345818,84.1862069 15.7811002,85.7793103 C14.1897287,87.3344828 12.0679001,88.2068966 9.87029195,88.2068966 C7.67268376,88.2068966 5.55085517,87.3344828 3.95948372,85.7413793 Z" id="Shape"></path>
                </g>
            </g>
        </g>
    </g>
</svg>