<?xml version="1.0" encoding="UTF-8" standalone="no"?>
<svg width="15px" height="20px" viewBox="0 0 15 20" version="1.1" xmlns="http://www.w3.org/2000/svg" xmlns:xlink="http://www.w3.org/1999/xlink">
    <!-- Generator: Sketch 49.3 (51167) - http://www.bohemiancoding.com/sketch -->
    <title>Shape</title>
    <desc>Created with Sketch.</desc>
    <defs></defs>
    <g id="3.-Components" stroke="none" stroke-width="1" fill="none" fill-rule="evenodd">
        <g id="Components-/-Filter" transform="translate(-25.000000, -257.000000)" fill="#2F3032" fill-rule="nonzero">
            <path d="M32.0513393,257.198131 C30.7526864,258.594203 29.0134471,260.486217 27.5848214,262.515867 C26.1561957,264.545496 25,266.710816 25,268.784631 C25,270.027681 25.4600007,271.823159 26.6272321,273.399145 C27.7944636,274.975152 29.7321421,276.285723 32.5,276.285723 C35.2678579,276.285723 37.2055364,274.975152 38.3727679,273.399145 C39.5399993,271.823138 40,270.027681 40,268.784631 C40,266.698195 38.782615,264.54121 37.3348214,262.515867 C35.8870279,260.490503 34.1682486,258.59911 33.015625,257.224917 C32.64139,256.916346 32.4136043,256.942638 32.0513393,257.198131 Z M32.5066964,258.611303 C33.6479179,259.946388 35.0656257,261.546246 36.2901786,263.25931 C37.6766071,265.19881 38.7142857,267.227716 38.7142857,268.784652 C38.7142857,269.684802 38.3171436,271.311702 37.3415179,272.628959 C36.3658921,273.946259 34.8749993,274.999838 32.5,274.999838 C30.1250007,274.999838 28.6341079,273.946259 27.6584821,272.628959 C26.6828564,271.311702 26.2857143,269.684802 26.2857143,268.784652 C26.2857143,267.215095 27.2740086,265.194481 28.6361607,263.25931 C29.84539,261.541338 31.2859771,259.934153 32.5066964,258.611303 Z" id="Shape"></path>
        </g>
    </g>
</svg>