<?xml version="1.0" encoding="UTF-8" standalone="no"?>
<svg width="37px" height="25px" viewBox="0 0 37 25" version="1.1" xmlns="http://www.w3.org/2000/svg" xmlns:xlink="http://www.w3.org/1999/xlink">
    <!-- Generator: Sketch 49.3 (51167) - http://www.bohemiancoding.com/sketch -->
    <title>Shape</title>
    <desc>Created with Sketch.</desc>
    <defs></defs>
    <g id="4.-Sections" stroke="none" stroke-width="1" fill="none" fill-rule="evenodd">
        <g id="Sections-/Promo" transform="translate(-1008.000000, -758.000000)" fill="#000000" fill-rule="nonzero">
            <g id="promo">
                <g id="arrows">
                    <g transform="translate(1008.000000, 757.000000)">
                        <g id="download-(6)" transform="translate(18.500000, 14.000000) scale(-1, 1) rotate(90.000000) translate(-18.500000, -14.000000) translate(5.500000, -4.500000)">
                            <path d="M24.8266976,12.9575046 C24.9492719,12.8337992 25.016709,12.6747495 25.016709,12.5024103 C25.016709,12.3300711 24.9493426,12.16883 24.8266976,12.0451247 L12.9694352,0.18241928 C12.7275382,-0.0606086866 12.3034056,-0.0606086866 12.061438,0.18241928 L0.204316992,12.0451954 C-0.0459212282,12.2969888 -0.0459212282,12.7067715 0.204882502,12.9575046 C0.446213939,13.1994015 0.870346516,13.1994015 1.11280897,12.9575046 L11.8726283,2.19266632 L11.8726283,35.5497039 C11.8726283,35.9042787 12.1609678,36.1925475 12.5155426,36.1925475 C12.8701175,36.1925475 13.1583862,35.9042787 13.1583862,35.5497039 L13.1583862,2.19379734 L23.9182763,12.9564442 C24.160668,13.2005325 24.5842351,13.1994015 24.8266976,12.9575046 Z" id="Shape"></path>
                        </g>
                    </g>
                </g>
            </g>
        </g>
    </g>
</svg>