<?xml version="1.0" encoding="UTF-8" standalone="no"?>
<svg width="20px" height="20px" viewBox="0 0 20 20" version="1.1" xmlns="http://www.w3.org/2000/svg" xmlns:xlink="http://www.w3.org/1999/xlink">
    <!-- Generator: Sketch 49.3 (51167) - http://www.bohemiancoding.com/sketch -->
    <title>Shape</title>
    <desc>Created with Sketch.</desc>
    <defs></defs>
    <g id="3.-Components" stroke="none" stroke-width="1" fill="none" fill-rule="evenodd">
        <g id="Components-/-Filter" transform="translate(-22.000000, -208.000000)" fill="#2F3032" fill-rule="nonzero">
            <path d="M29.4488876,208.000611 C29.1626878,208.027594 28.9443672,208.268583 28.9456069,208.556149 L28.9456069,211.177596 C28.4766961,211.389841 28.0356578,211.643846 27.6266643,211.941463 L25.3445468,210.578655 C25.2162546,210.500297 25.0616913,210.477304 24.9161576,210.514927 C24.770624,210.55255 24.6465494,210.647576 24.5722713,210.778302 L22.0732225,215.22261 C21.9990976,215.352326 21.9803252,215.506441 22.0211424,215.650168 C22.0619596,215.793896 22.1589259,215.915119 22.2901538,215.986476 L24.5635941,217.236437 C24.5367024,217.488401 24.5028533,217.73854 24.5028533,218.00029 C24.5028533,218.258123 24.5388833,218.508373 24.5635941,218.764179 L22.2901538,220.014123 C22.1612733,220.085487 22.0660126,220.205147 22.0253296,220.346774 C21.9846467,220.488402 22.0018744,220.640396 22.0732225,220.769317 L24.5722713,225.213622 C24.6465508,225.344347 24.770626,225.439371 24.9161595,225.476993 C25.0616931,225.514614 25.2162556,225.49162 25.3445468,225.413261 L27.617987,224.050456 C28.0330664,224.350511 28.4739861,224.612178 28.9456069,224.823011 L28.9456069,227.444455 C28.9456282,227.751265 29.194249,227.99998 29.500951,228.000011 L34.499049,228.000011 C34.805751,227.99998 35.0543718,227.751265 35.0543931,227.444455 L35.0543931,224.823011 C35.5260138,224.612178 35.9669335,224.350511 36.3820129,224.050456 L38.6554532,225.413261 C38.7837444,225.49162 38.9383069,225.514614 39.0838404,225.476993 C39.2293739,225.439371 39.3534491,225.344347 39.4277286,225.213622 L41.9267775,220.769317 C41.9981256,220.640396 42.0153533,220.488402 41.9746704,220.346774 C41.9339875,220.205147 41.8387269,220.085488 41.7098464,220.014123 L39.4364058,218.764179 C39.4611169,218.508373 39.4971467,218.258123 39.4971467,218.00029 C39.4971467,217.73854 39.4632986,217.488401 39.4364058,217.236437 L41.7098464,215.986476 C41.8410743,215.915119 41.9380405,215.793895 41.9788577,215.650168 C42.0196748,215.506441 42.0009023,215.352326 41.9267775,215.22261 L39.4277286,210.778302 C39.3534505,210.647576 39.229376,210.55255 39.0838423,210.514927 C38.9383087,210.477304 38.7837454,210.500297 38.6554532,210.578655 L36.3733357,211.941463 C35.9643421,211.643846 35.5233038,211.389841 35.0543931,211.177596 L35.0543931,208.556149 C35.0543626,208.249347 34.8057445,208.000641 34.499049,208.000611 L29.500951,208.000611 C29.4836061,207.999796 29.4662325,207.999796 29.4488876,208.000611 Z M30.0562954,209.111688 L33.9437046,209.111688 L33.9437046,211.524807 C33.9462999,211.752281 34.0872557,211.95519 34.299472,212.036943 C34.9165809,212.275493 35.4870288,212.613141 36.0002138,213.026499 C36.1795832,213.174942 36.4324619,213.195734 36.6336531,213.078579 L38.7335484,211.828618 L40.6859304,215.283374 L38.5860351,216.437851 C38.3857407,216.550381 38.2753695,216.774651 38.3083629,217.002071 C38.3592301,217.328498 38.3864582,217.666623 38.3864582,218.00029 C38.3864582,218.34179 38.3663165,218.672595 38.3170401,218.989845 C38.2801842,219.220194 38.3910987,219.449042 38.5947123,219.562762 L40.6772532,220.717234 L38.7335484,224.171984 L36.6510076,222.922039 C36.4515964,222.802444 36.1988221,222.819758 36.0175682,222.965428 C35.5072816,223.378456 34.9249208,223.713206 34.299472,223.954984 C34.0843144,224.037885 33.9427332,224.245145 33.9437046,224.475789 L33.9437046,226.888928 L30.0562954,226.888928 L30.0562954,224.475789 C30.0572667,224.245145 29.9156856,224.037885 29.7005279,223.954984 C29.0750791,223.713206 28.4927183,223.378456 27.9824317,222.965428 C27.8011778,222.819758 27.5484035,222.802444 27.3489924,222.922039 L25.2664515,224.171984 L23.3227468,220.717234 L25.4052876,219.562762 C25.6089012,219.449042 25.7198157,219.220194 25.6829598,218.989845 C25.6336848,218.672595 25.6135417,218.34179 25.6135417,218.00029 C25.6135417,217.666623 25.6407695,217.328498 25.691637,217.002071 C25.7246304,216.774651 25.6142593,216.550381 25.4139648,216.437851 L23.3140695,215.283374 L25.2664515,211.828618 L27.3663468,213.078579 C27.567538,213.195734 27.8204168,213.174942 27.9997862,213.026499 C28.5129714,212.613141 29.0834191,212.275493 29.7005279,212.036943 C29.9127442,211.95519 30.0537,211.752281 30.0562954,211.524807 L30.0562954,209.111688 Z M32.0000001,213.833765 C29.7062668,213.833765 27.8349184,215.705754 27.8349184,218.00029 C27.8349184,220.294817 29.7062657,222.166845 32.0000001,222.166845 C34.293727,222.166817 36.1650815,220.294845 36.1650815,218.00029 C36.1650815,215.705765 34.2937334,213.833765 32.0000001,213.833765 Z M32.0000001,214.94484 C33.6934724,214.94484 35.0543931,216.306243 35.0543931,218.00029 C35.0543931,219.694401 33.6934788,221.055734 32.0000001,221.055762 C30.3065284,221.055762 28.9456069,219.694373 28.9456069,218.00029 C28.9456069,216.306226 30.3065273,214.94484 32.0000001,214.94484 Z" id="Shape"></path>
        </g>
    </g>
</svg>